<svg width="19" height="19" viewBox="0 0 19 19" fill="none" xmlns="http://www.w3.org/2000/svg">
<path d="M15.7289 6.52542L9.5716 10.3737L3.41432 6.52542V4.9861L9.5716 8.8344L15.7289 4.9861M15.7289 3.44678H3.41432C2.56 3.44678 1.875 4.13177 1.875 4.9861V14.222C1.875 14.6303 2.03718 15.0218 2.32586 15.3105C2.61453 15.5992 3.00607 15.7613 3.41432 15.7613H15.7289C16.1371 15.7613 16.5287 15.5992 16.8173 15.3105C17.106 15.0218 17.2682 14.6303 17.2682 14.222V4.9861C17.2682 4.57784 17.106 4.18631 16.8173 3.89763C16.5287 3.60896 16.1371 3.44678 15.7289 3.44678Z" fill="#EDEDED"/>
</svg>
