<svg width="22" height="22" viewBox="0 0 22 22" fill="none" xmlns="http://www.w3.org/2000/svg">
<g clip-path="url(#clip0_1_132)">
<path fill-rule="evenodd" clip-rule="evenodd" d="M14.8186 20.0736C13.5586 20.0272 9.9877 19.5337 6.24795 15.7948C2.50907 12.0551 2.01645 8.48506 1.9692 7.22419C1.8992 5.30269 3.37095 3.43631 5.07107 2.70744C5.2758 2.61904 5.5 2.58538 5.72166 2.60977C5.94332 2.63416 6.15484 2.71576 6.33545 2.84656C7.73545 3.86681 8.70145 5.41031 9.53095 6.62394C9.71346 6.89058 9.79149 7.21504 9.75018 7.53551C9.70887 7.85598 9.55111 8.15005 9.30695 8.36169L7.59982 9.62956C7.51735 9.68912 7.45929 9.77659 7.43644 9.87572C7.41359 9.97485 7.42749 10.0789 7.47557 10.1686C7.86232 10.8712 8.55007 11.9177 9.33757 12.7052C10.1259 13.4927 11.2214 14.2259 11.9731 14.6564C12.0673 14.7093 12.1782 14.7241 12.283 14.6978C12.3879 14.6714 12.4786 14.6059 12.5366 14.5147L13.6478 12.8233C13.8521 12.5519 14.1535 12.3701 14.4889 12.316C14.8242 12.2618 15.1675 12.3395 15.4468 12.5328C16.6779 13.3851 18.1147 14.3344 19.1664 15.6811C19.3079 15.863 19.3978 16.0795 19.4269 16.3081C19.456 16.5367 19.4232 16.7689 19.3318 16.9804C18.5994 18.6893 16.7462 20.1444 14.8186 20.0736Z" fill="#EDEDED"/>
</g>
<defs>
<clipPath id="clip0_1_132">
<rect width="21" height="21" fill="white" transform="translate(0.335938 0.70752)"/>
</clipPath>
</defs>
</svg>
