<svg width="25" height="25" viewBox="0 0 25 25" fill="none" xmlns="http://www.w3.org/2000/svg">
<path d="M13.528 2.68434C14.2578 2.68154 14.9875 2.68887 15.717 2.70634L15.911 2.71334C16.135 2.72134 16.356 2.73134 16.623 2.74334C17.687 2.79334 18.413 2.96134 19.05 3.20834C19.71 3.46234 20.266 3.80634 20.822 4.36234C21.3304 4.86194 21.7239 5.46628 21.975 6.13334C22.222 6.77034 22.39 7.49734 22.44 8.56134C22.452 8.82734 22.462 9.04934 22.47 9.27334L22.476 9.46734C22.4938 10.1965 22.5015 10.9259 22.499 11.6553L22.5 12.4013V13.7113C22.5025 14.4411 22.4948 15.1708 22.477 15.9003L22.471 16.0943C22.463 16.3183 22.453 16.5393 22.441 16.8063C22.391 17.8703 22.221 18.5963 21.975 19.2333C21.7247 19.9011 21.3311 20.5059 20.822 21.0053C20.322 21.5137 19.7173 21.9071 19.05 22.1583C18.413 22.4053 17.687 22.5733 16.623 22.6233C16.356 22.6353 16.135 22.6453 15.911 22.6533L15.717 22.6593C14.9875 22.6771 14.2578 22.6848 13.528 22.6823L12.782 22.6833H11.473C10.7433 22.6858 10.0136 22.6781 9.28403 22.6603L9.09003 22.6543C8.85264 22.6457 8.6153 22.6357 8.37803 22.6243C7.31403 22.5743 6.58803 22.4043 5.95003 22.1583C5.28271 21.9077 4.67827 21.5142 4.17903 21.0053C3.67007 20.5056 3.27625 19.9009 3.02503 19.2333C2.77803 18.5963 2.61003 17.8703 2.56003 16.8063C2.54889 16.5691 2.53889 16.3317 2.53003 16.0943L2.52503 15.9003C2.50659 15.1708 2.49826 14.4411 2.50003 13.7113V11.6553C2.49724 10.9259 2.50457 10.1965 2.52203 9.46734L2.52903 9.27334C2.53703 9.04934 2.54703 8.82734 2.55903 8.56134C2.60903 7.49634 2.77703 6.77134 3.02403 6.13334C3.2754 5.46596 3.66999 4.86178 4.18003 4.36334C4.67892 3.85409 5.28299 3.45991 5.95003 3.20834C6.58803 2.96134 7.31303 2.79334 8.37803 2.74334L9.09003 2.71334L9.28403 2.70834C10.0132 2.68991 10.7426 2.68157 11.472 2.68334L13.528 2.68434ZM12.5 7.68434C11.8375 7.67497 11.1798 7.79736 10.565 8.0444C9.95022 8.29145 9.39067 8.65821 8.91887 9.12339C8.44707 9.58857 8.07243 10.1429 7.81671 10.7541C7.561 11.3653 7.42932 12.0213 7.42932 12.6838C7.42932 13.3464 7.561 14.0023 7.81671 14.6136C8.07243 15.2248 8.44707 15.7791 8.91887 16.2443C9.39067 16.7095 9.95022 17.0762 10.565 17.3233C11.1798 17.5703 11.8375 17.6927 12.5 17.6833C13.8261 17.6833 15.0979 17.1566 16.0356 16.2189C16.9732 15.2812 17.5 14.0094 17.5 12.6833C17.5 11.3573 16.9732 10.0855 16.0356 9.1478C15.0979 8.21012 13.8261 7.68434 12.5 7.68434ZM12.5 9.68434C12.8985 9.67699 13.2945 9.74913 13.6648 9.89654C14.0351 10.044 14.3724 10.2637 14.6568 10.5429C14.9412 10.8221 15.1672 11.1552 15.3215 11.5227C15.4757 11.8902 15.5552 12.2848 15.5553 12.6833C15.5554 13.0819 15.476 13.4765 15.3219 13.8441C15.1677 14.2116 14.9419 14.5448 14.6575 14.8241C14.3732 15.1034 14.036 15.3232 13.6658 15.4707C13.2955 15.6183 12.8995 15.6905 12.501 15.6833C11.7054 15.6833 10.9423 15.3673 10.3797 14.8047C9.8171 14.242 9.50103 13.479 9.50103 12.6833C9.50103 11.8877 9.8171 11.1246 10.3797 10.562C10.9423 9.99941 11.7054 9.68334 12.501 9.68334L12.5 9.68434ZM17.75 6.18434C17.4274 6.19725 17.1223 6.33449 16.8986 6.56731C16.6749 6.80013 16.55 7.11047 16.55 7.43334C16.55 7.7562 16.6749 8.06654 16.8986 8.29936C17.1223 8.53219 17.4274 8.66942 17.75 8.68234C18.0815 8.68234 18.3995 8.55064 18.6339 8.31622C18.8683 8.0818 19 7.76386 19 7.43234C19 7.10082 18.8683 6.78287 18.6339 6.54845C18.3995 6.31403 18.0815 6.18234 17.75 6.18234V6.18434Z" fill="#EDEDED"/>
</svg>
