<svg width="119" height="77" viewBox="0 0 119 77" fill="none" xmlns="http://www.w3.org/2000/svg">
<g clip-path="url(#clip0_1_30)">
<path d="M47.4743 0C46.5987 2.13245 45.7665 4.2901 44.9761 6.47464C44.6192 7.46609 44.1639 8.31806 43.6085 9.03223C41.4889 11.7747 39.3392 14.5474 37.1596 17.352C36.6509 18.0073 36.6259 18.7165 37.0829 19.476C37.1612 19.6071 37.1562 19.7348 37.0695 19.8608L36.4108 20.8035C36.0506 20.5145 35.717 20.6086 35.4118 21.0875C33.9226 23.4149 32.39 25.7692 30.8157 28.1486C30.6856 28.3402 30.7373 28.4377 30.9708 28.441H31.406C31.3026 28.9351 31.0425 29.2056 30.6255 29.251C29.1146 29.4073 28.3191 30.066 28.2374 31.2272L27.7871 31.333C27.5987 31.375 27.4803 31.5649 27.522 31.7565C27.5253 31.7699 27.5286 31.7817 27.532 31.7951L29.1813 36.6095C29.4148 37.2867 29.223 37.8077 28.6093 38.1706C28.5209 38.2227 28.4242 38.2446 28.3191 38.2345C27.7471 38.1824 27.3719 37.9001 27.1934 37.3876C26.5881 35.6433 25.9693 33.7075 25.3356 31.5801C24.8903 30.0878 26.3946 29.3602 27.5787 29.214C27.8155 29.1855 28.0256 29.0544 28.1557 28.8578L34.001 19.9028C34.086 19.7718 34.091 19.6373 34.0193 19.4995C33.6191 18.7182 33.6624 18.0107 34.146 17.3755C36.1223 14.786 38.1919 12.1141 40.3549 9.36328C41.0153 8.52475 41.5039 7.66774 41.8224 6.79224C42.6163 4.5993 43.4301 2.46013 44.2656 0.376413C44.3523 0.154598 44.5658 0.0100825 44.8009 0.0100825L47.4759 0.00168042L47.4743 0Z" fill="black"/>
<path d="M47.4743 5.84638e-06L52.8426 0.0268925C53.3529 0.0268925 53.7865 0.408347 53.8599 0.919193L54.105 2.62986C54.13 2.80126 54.2184 2.92561 54.3735 3.00459L59.6284 5.66805C59.7401 5.7235 59.8719 5.71342 59.9686 5.64116C60.9726 4.88161 61.6497 5.45295 62.5852 5.93355C66.2942 7.84923 69.9198 9.72121 73.4619 11.5478C74.0523 11.8537 74.3592 12.3813 74.3842 13.1308C74.3875 13.2955 74.4709 13.3912 74.6343 13.4198C76.8507 13.8013 78.6184 14.954 79.9393 16.8798C81.2084 18.7316 82.4358 20.6036 83.6232 22.494C83.6832 22.5848 83.7816 22.6402 83.8867 22.6402L99.0911 22.6352C99.533 22.6352 99.8282 22.8436 99.9766 23.262C100.567 24.9458 100.939 26.6766 101.094 28.4511C101.111 28.6158 101.246 28.7418 101.407 28.7435C103.584 28.7838 105.745 28.8847 107.888 29.046C109.037 29.1334 109.764 30.1131 110.513 30.8575C110.655 31.0037 110.733 31.1801 110.745 31.3834C110.975 35.6702 111.068 39.9805 111.027 44.3159C111.023 44.615 110.875 44.7696 110.581 44.778L100.695 45.062C100.467 45.0688 100.25 45.1713 100.1 45.346L99.3279 46.2618C99.2011 46.4148 99.0394 46.4937 98.8426 46.5005C95.5856 46.6517 92.4353 46.7559 89.0332 47.1693C85.7729 47.5591 82.4625 47.8885 79.1004 48.1523C78.8886 48.1708 78.6551 48.3388 78.4016 48.6564C78.1115 48.7573 77.8463 49.011 77.6062 49.416C77.3343 49.5723 77.1509 49.8546 77.0558 50.2629C76.8857 50.4427 76.779 50.6679 76.734 50.9351C76.5822 51.2611 76.5021 51.5568 76.4938 51.8223L76.2853 52.9717L76.277 54.0102C76.2837 55.4907 76.6889 56.8434 77.4944 58.0684C77.5528 58.1609 77.5244 58.2819 77.4344 58.3407C77.401 58.3625 77.361 58.3726 77.3226 58.3709L76.1102 58.334L65.1018 58.3289C63.3824 57.2551 62.4702 55.8453 62.3684 54.101C62.777 54.0405 63.1723 54.0438 63.5542 54.1144L66.6294 54.1464C66.7578 54.1464 66.8612 54.0422 66.8612 53.9128C66.8612 53.9094 66.8612 53.9061 66.8612 53.9027L66.8562 53.733C66.8479 53.486 66.7178 53.3616 66.471 53.3616L63.7326 53.375L62.9021 53.3112L62.6336 52.7163L63.6459 52.6575L66.466 52.671C66.6811 52.671 66.8562 52.4979 66.8612 52.2828L66.8662 52.1231C66.8712 51.9618 66.7428 51.8257 66.581 51.8207C66.576 51.8207 66.571 51.8207 66.5677 51.8207L63.5425 51.8442L63.2056 51.7988C62.9688 51.6224 62.9004 51.4022 62.9972 51.1401L63.3424 51.0662L66.5343 51.093C66.6711 51.0964 66.8028 51.0409 66.8979 50.9418C67.073 50.7519 67.143 50.5435 67.1064 50.315C67.088 50.2058 67.023 50.152 66.9112 50.1554L64.0645 50.2108C64.1612 50.3335 64.0645 50.3184 63.7743 50.1655C63.7893 49.8243 63.9811 49.6512 64.3513 49.6479C65.3269 49.6328 66.3125 49.5706 67.3081 49.4597C67.4599 49.4445 67.58 49.374 67.6717 49.2496C68.187 48.5539 68.8691 48.038 69.7196 47.7036L73.9256 47.4886C75.0396 47.6465 76.1286 47.6179 77.1909 47.4012C77.351 47.3676 77.4461 47.2701 77.4777 47.1088C77.4928 47.0298 77.4777 46.9559 77.4361 46.8886C77.3543 46.7542 77.2343 46.6887 77.0775 46.692L74.2124 46.734C71.5024 46.7223 69.0859 46.8231 66.9596 47.0365C65.0701 47.2281 63.5392 48.0834 62.3684 49.5992C62.19 49.7756 62.0999 49.9705 62.0999 50.1806C61.8131 50.5318 61.688 50.846 61.728 51.1233L61.5463 51.8828C61.4128 52.1853 61.3795 52.4273 61.4462 52.6105L61.4412 53.4944C61.4045 53.6708 61.4062 53.8019 61.4462 53.8876C61.5679 55.5159 62.1967 56.9224 63.3357 58.1071C63.3924 58.1642 63.3941 58.2398 63.3407 58.3306L62.4135 58.3575C61.1327 57.1711 60.4039 55.7495 60.2288 54.0926C60.2888 53.7817 60.2571 53.5229 60.1337 53.3145L60.2421 52.6105C60.2671 50.4965 61.0693 48.7455 62.6486 47.3575C63.6592 46.7508 64.5298 46.3845 65.2602 46.2585C67.4065 45.8871 70.1749 45.6418 73.562 45.5258C73.7104 45.5191 73.8155 45.4468 73.8805 45.3057C74.1624 44.6654 74.1424 44.121 73.8222 43.6723C73.9372 42.375 73.8455 41.1971 73.5453 40.1351L72.8999 35.3526L72.7181 32.4556C72.7081 32.2993 72.8265 32.1648 72.9833 32.1548C73.02 32.1531 73.055 32.1564 73.09 32.1682C73.3902 32.269 73.6671 32.2421 73.9206 32.0859C74.0223 32.0237 74.0573 31.8926 73.9973 31.7884L70.0365 24.6954C69.9531 24.5442 69.8247 24.4215 69.6679 24.3475L53.7281 16.5538C53.6047 16.4933 53.4913 16.5101 53.3912 16.6042C53.0977 16.8781 52.8909 17.2007 52.7742 17.5704L39.5994 39.2293C39.511 39.3721 39.5494 39.4444 39.7128 39.4444L42.4378 39.436C42.5929 39.436 42.7413 39.4931 42.8564 39.5956C43.1683 39.883 43.4368 40.2493 43.6602 40.6946C45.8466 45.0351 47.9546 49.2563 49.9858 53.3566C50.0442 53.4759 50.1626 53.5515 50.2943 53.5582C51.3233 53.6103 52.404 53.6321 53.5363 53.6221C54.7671 53.6137 55.2707 54.5732 55.9395 55.3882C56.0946 55.5781 56.0562 55.7108 55.8261 55.7915C52.2572 57.0703 48.61 58.255 44.886 59.3472C42.5696 60.0295 40.0814 59.9236 37.6649 59.8178C36.1656 59.5707 34.6647 59.3876 33.1604 59.2683C31.341 59.1221 30.1202 58.9423 29.4999 58.7288C25.9393 57.5122 23.3777 54.19 23.2193 50.4545C23.1526 48.8833 23.6629 46.9979 24.7503 44.7982C25.7826 42.7061 26.7432 40.945 27.6304 39.5167C27.6904 39.4192 27.8138 39.3755 27.9989 39.3839C28.0873 39.357 28.1707 39.3503 28.2524 39.3654L32.1532 39.3738C32.3133 39.3738 32.425 39.2982 32.49 39.1453L33.4306 36.7977C33.4973 36.6297 33.5023 36.4432 33.4439 36.2718L32.1231 32.2808C32.1165 31.9666 32.0464 31.6288 31.9097 31.2692C31.4577 31.202 31.0491 31.2389 30.6839 31.3784C30.5322 31.4355 30.4821 31.5431 30.5338 31.6994C31.0725 33.2773 31.6095 34.8636 32.1465 36.4583C32.7135 38.1337 31.0708 38.9436 30.207 37.4783L28.2491 31.2221C28.3308 30.0593 29.1263 29.4006 30.6372 29.246C31.0558 29.2006 31.316 28.93 31.4177 28.436L36.4225 20.7985L37.0812 19.8558C37.1696 19.7314 37.1729 19.6021 37.0945 19.471C36.6376 18.7114 36.6626 18.004 37.1712 17.3469C39.3509 14.544 41.5006 11.7696 43.6202 9.0272C44.1739 8.31302 44.6292 7.46105 44.9877 6.46961C45.7782 4.28507 46.6104 2.12741 47.4859 -0.0050354L47.4743 5.84638e-06ZM49.2404 3.13902L46.5253 10.1548C46.4653 10.3077 46.5087 10.4169 46.6571 10.4841C46.8289 10.5631 47.054 10.5782 47.3292 10.5295C47.9979 11.1462 48.3014 12.0217 48.2381 13.156C48.1597 13.9525 48.2664 14.623 48.5599 15.1691C48.65 15.3338 48.8468 15.4279 49.1453 15.4531C49.6323 15.4934 49.9074 15.2683 49.9725 14.7809L50.1359 13.5542L50.2226 11.284C50.4494 9.96991 51.0214 8.97511 51.9387 8.29958C52.8292 8.40712 53.0127 7.4224 52.489 5.34877C52.5624 4.80936 52.5274 4.19264 52.3839 3.50031L52.1755 1.30401C52.1605 1.14269 52.0771 1.03514 51.9253 0.983049C51.6251 0.875502 51.2349 0.841894 50.7529 0.882224C50.0775 1.00489 49.5739 1.75604 49.2404 3.13902ZM54.6353 6.50321L54.8938 8.68103C54.9122 8.83731 54.9972 8.93478 55.1473 8.97342L60.0203 10.2505L64.5298 11.2302C65.377 11.4134 65.412 11.3126 64.6348 10.9277C63.1873 10.2203 61.7064 9.53636 60.1888 8.87764C59.5917 8.61886 59.2499 8.15506 59.1631 7.48626C59.1381 7.31822 59.0531 7.19555 58.9046 7.11489L54.7671 4.92362C54.597 4.83456 54.5019 4.88665 54.4802 5.0799C54.4319 5.56218 54.4836 6.03606 54.6353 6.50321ZM52.1605 11.4856C52.1672 11.7209 52.2055 11.9242 52.2789 12.094C52.7725 13.2383 53.608 14.0214 54.7854 14.4465C60.619 16.537 66.3942 18.6375 72.1061 20.7531C72.7415 20.9094 73.2101 21.106 73.5086 21.343L74.681 23.8048L78.0831 30.7835C78.3433 31.3213 78.4784 31.2893 78.4867 30.6928C78.4934 30.2072 78.3449 29.6661 78.0414 29.0678C77.8413 28.3654 77.9197 27.8848 78.2782 27.621C78.4467 27.495 78.5301 27.2832 78.4917 27.0765L77.4928 21.7177C77.4627 21.553 77.3643 21.4589 77.1976 21.4337L75.7033 21.2321C75.3281 20.943 75.2214 20.6271 75.3848 20.2843C75.7934 20.0154 76.3654 19.9112 77.1008 19.9684C79.0037 19.7667 78.8319 21.8303 79.0404 23.1208L79.8859 27.0967C80.9616 27.5219 80.8131 28.7855 81.0933 29.6963L81.6787 33.1059C81.8454 34.0738 81.9955 34.0704 82.1289 33.0975L83.2913 24.6131L81.8204 22.5764C80.2495 20.123 79.2455 18.1233 77.0658 16.9756C76.1636 16.4261 74.9862 15.9841 73.532 15.648C64.3913 13.5307 57.9557 12.0637 54.2268 11.2453C53.3245 11.0471 52.6358 11.126 52.1605 11.484V11.4856ZM45.1945 13.5458L44.4674 15.5321L39.7812 27.663C39.7262 27.8042 39.7729 27.8731 39.9213 27.8731C40.2698 27.8798 40.6434 27.9554 41.0436 28.1016C41.4556 28.7452 41.4289 29.298 40.9619 29.7585C40.7868 29.9349 40.3899 30.0643 39.7729 30.1433C39.1525 30.1618 38.7689 30.3113 38.6238 30.592C38.1635 31.4641 37.6499 32.8286 37.0845 34.6838L36.1123 37.159C36.0522 37.312 36.0556 37.4615 36.1256 37.6077C36.3774 38.1387 36.4058 38.6781 36.2123 39.2276C36.1706 39.3469 36.2123 39.4175 36.3357 39.4377C36.3908 39.4461 36.4591 39.4377 36.5442 39.4108L37.7566 39.4058C37.9784 39.4058 38.0535 39.2999 37.9834 39.0898L37.9384 38.9571C37.8867 38.8109 37.9 38.6697 37.9801 38.5353L50.818 16.5924L52.0988 14.3692C51.9537 13.9458 51.7052 13.5509 51.3533 13.1879C51.2416 13.072 51.1682 13.0938 51.1348 13.2518C51.0798 13.524 51.0798 13.7677 51.1348 13.9844C50.8897 16.1908 49.8524 16.9117 48.0246 16.1488C47.9179 15.9757 47.7828 15.8379 47.616 15.7371L47.1757 12.388C46.8072 10.8538 46.1468 11.2386 45.1962 13.5458H45.1945ZM36.9378 27.5891L39.3809 21.027C39.4326 20.8876 39.3609 20.7313 39.2192 20.6792C39.2042 20.6742 39.1875 20.6691 39.1708 20.6658C38.9223 20.6254 38.7289 20.7145 38.5888 20.9313C37.0545 23.2872 35.4919 25.6633 33.9026 28.0613C33.6941 28.3789 33.7742 28.4982 34.1427 28.4175L36.5859 27.8865C36.7443 27.8529 36.8761 27.7403 36.9361 27.5891H36.9378ZM94.655 24.5089L95.8441 27.4782C96.0075 27.8865 95.9291 28.2411 95.6072 28.5402C95.4622 28.6746 95.272 28.7065 95.0402 28.636C94.8618 28.5805 94.7167 28.4511 94.645 28.2797L93.9412 26.5506C93.6177 25.7608 93.3809 25.786 93.2325 26.6279L92.6688 29.8627L92.1334 34.4838C92.1118 34.6737 92.1952 34.7728 92.3836 34.7812L92.6154 34.7896C92.7872 34.798 92.9373 34.6703 92.9556 34.4973C93.079 33.2369 93.2041 31.9161 93.3275 30.5348C93.3692 30.0526 93.6944 29.8089 94.2998 29.8022L96.9064 29.8106C97.39 30.9701 97.4484 32.595 97.0782 34.6838C97.0815 35.0736 97.1449 35.4383 97.2683 35.7777C97.32 35.9273 97.3967 35.9424 97.5001 35.8231C98.4207 34.7611 99.1378 33.5781 99.6531 32.2724C99.8749 31.9212 99.9433 31.57 99.8615 31.2154C99.9366 30.681 99.9032 30.1853 99.7615 29.7282C99.7698 29.4258 99.7281 29.1182 99.6347 28.804L98.7859 24.8097C98.7525 24.6534 98.6608 24.5542 98.509 24.5122C98.1555 24.4114 97.7769 24.3946 97.3733 24.4618L94.6533 24.5072L94.655 24.5089ZM83.5732 33.3277L83.233 38.6361C83.2263 38.7218 83.2863 38.8008 83.373 38.8243L83.4915 38.8512C83.6132 38.8815 83.6816 38.8344 83.6999 38.7101C83.9451 37.1641 84.0685 35.6181 84.0718 34.0738C84.0718 33.7226 84.3253 33.5982 84.8339 33.6991L87.6957 33.6083C87.9992 33.8486 88.2511 34.1897 88.4545 34.6283C88.5379 34.8081 88.718 34.9224 88.9181 34.9207L90.2439 34.9123C90.4808 34.9123 90.6108 34.7947 90.6342 34.5594L91.1478 29.7585L91.4564 27.7319L91.9333 25.2936C92.1751 24.9911 92.2118 24.7324 92.0417 24.5156L86.9369 24.5526L85.2392 24.529C85.1241 24.5257 85.0241 24.6047 84.999 24.7172C84.2869 27.4815 83.8116 30.3517 83.5732 33.3294V33.3277ZM101.344 29.7669L101.386 31.323L101.122 32.7412C99.1995 36.8347 96.4661 39.7838 92.9206 41.5869C91.3463 42.3868 91.4397 42.7867 93.2024 42.7901H106.309L107.972 42.7666L109.052 42.7851C109.209 42.7884 109.289 42.7111 109.289 42.5515V33.4537C109.289 33.2991 109.172 33.168 109.017 33.1512L107.818 33.0319C106.252 32.9093 104.683 32.7496 103.109 32.5513C102.522 32.4774 102.29 32.0993 102.413 31.4171L105.9 31.486L107.926 31.4776C108.175 31.5784 108.469 31.6288 108.807 31.6288C108.94 31.6288 108.977 31.57 108.915 31.4507C108.373 30.3584 107.61 29.8711 106.622 29.9904L101.346 29.7669H101.344ZM35.0116 32.627C35.135 32.2102 35.225 31.8943 35.4152 31.496C35.5419 31.2238 35.4585 31.1196 35.165 31.1801L34.3662 31.3498C34.1777 31.3902 34.1044 31.5028 34.1444 31.6893C34.2194 32.0455 34.3228 32.3715 34.4529 32.6639C34.6714 33.1512 34.8565 33.1395 35.0116 32.627ZM76.6122 41.9902C76.6206 42.8439 76.744 43.6236 76.9808 44.3294H79.9426C80.2545 44.331 80.5063 44.0773 80.5079 43.7614C80.5079 43.6639 80.4846 43.5681 80.4379 43.4824L76.2953 35.9693C75.9468 35.3375 75.8151 35.3812 75.9001 36.097L76.6139 41.9902H76.6122ZM90.4357 38.416L90.5491 37.4867C90.5675 37.3388 90.4641 37.2044 90.3173 37.1859C90.3173 37.1859 90.3157 37.1859 90.314 37.1859L89.9955 37.1439C89.8654 37.1288 89.7953 37.1859 89.787 37.317C89.7536 37.8379 89.9638 38.2832 90.4191 38.6479C90.4524 38.6731 90.4791 38.6664 90.5008 38.6294C90.5191 38.5924 90.5091 38.5555 90.4691 38.5151C90.4424 38.4849 90.4307 38.4513 90.4374 38.4143L90.4357 38.416ZM92.1068 40.251C92.9606 40.0712 93.4409 39.678 93.546 39.0697L93.5143 37.5186C93.5076 37.3237 93.4092 37.2262 93.2191 37.2262L92.2518 37.2128C92.0967 37.2128 92.0167 37.2901 92.0117 37.4464C91.9783 38.1017 91.945 38.8075 91.9116 39.5603C91.8966 39.8712 91.9617 40.1014 92.1068 40.251ZM41.0386 41.1937C39.5611 45.178 38.3636 48.7556 37.4464 51.9248C36.9494 53.6355 37.0412 55.2739 37.7182 56.8401C38.2903 57.6063 39.1191 58.3071 40.2031 58.9456C44.309 58.5759 48.4632 57.5526 52.6641 55.8755C53.4096 55.8083 54.085 55.6436 54.6937 55.3815C55.0306 55.2386 55.0156 55.1512 54.652 55.121C54.155 55.079 53.5263 55.1966 52.7625 55.4772L46.437 56.8871L42.146 57.1711C40.8285 57.0367 40.088 56.5141 39.9246 55.6016C39.7245 54.4791 39.8812 52.9869 40.3916 51.1266C41.057 48.7136 41.7257 46.3761 42.3945 44.116C43.1082 42.5901 42.9448 41.4071 41.9042 40.5652C41.6557 40.3669 41.4606 40.335 41.3188 40.4695C41.1854 40.5972 41.092 40.8408 41.037 41.1971L41.0386 41.1937ZM87.4972 42.7767L89.0049 42.7683L90.3624 42.7817C90.5258 42.7817 90.6242 42.701 90.6575 42.5397C90.6692 42.4725 90.6692 42.4053 90.6575 42.3381C90.6242 42.1818 90.5308 42.086 90.3757 42.049C89.9304 41.9482 89.4668 41.9348 88.9865 42.007L87.3788 41.9835L83.6232 41.965C83.3664 41.965 83.238 42.0927 83.238 42.3498V42.5095C83.2396 42.6674 83.368 42.7935 83.5248 42.7935L87.4989 42.775L87.4972 42.7767ZM75.665 51.4342C75.665 51.3653 75.6083 51.3115 75.5399 51.3132L70.0182 51.4291C69.9498 51.4291 69.8964 51.4863 69.8981 51.5552L69.9081 52.0761C69.9081 52.145 69.9648 52.1988 70.0332 52.1971L75.5549 52.0811C75.6233 52.0811 75.6766 52.024 75.675 51.9551L75.665 51.4342ZM75.6533 55.1479C75.6533 55.079 75.5999 55.0235 75.5332 55.0219L70.0031 54.9143C69.9348 54.9143 69.8797 54.9681 69.8781 55.0353L69.8681 55.5663C69.8681 55.6352 69.9214 55.6907 69.9881 55.6923L75.5182 55.7999C75.5866 55.7999 75.6416 55.7461 75.6433 55.6789L75.6533 55.1479Z" fill="#FFCC00"/>
<path d="M50.7529 0.883898L51.1065 2.54079C51.1398 2.69034 51.2132 2.81301 51.3283 2.91216C51.6285 3.17094 51.9787 3.36755 52.3823 3.50199C52.524 4.19432 52.5591 4.81103 52.4873 5.35044C52.2272 5.11855 51.9503 4.96059 51.6568 4.87488C51.5601 4.84632 51.46 4.90009 51.43 4.99756C51.4217 5.02444 51.42 5.05301 51.425 5.08158L51.9387 8.30293C51.0214 8.97678 50.4494 9.97159 50.2226 11.2874C49.8507 11.0336 49.5205 11.0924 49.232 11.4604C49.1353 11.5831 49.1086 11.7175 49.1553 11.8671C49.3487 12.4922 49.6756 13.0551 50.1359 13.5559L49.9725 14.7826C49.9091 15.2699 49.6339 15.4951 49.1453 15.4548C48.8451 15.4296 48.65 15.3355 48.5599 15.1708C49.2287 14.5675 49.1219 13.8954 48.2381 13.1577C48.3014 12.0234 47.9996 11.1479 47.3292 10.5312C47.6377 9.71616 48.1046 9.02047 48.7284 8.44409C48.8501 8.3315 48.9919 8.2626 49.1553 8.2374L49.4822 8.19539C49.694 8.16514 49.7873 8.04247 49.764 7.82906L49.242 3.13902C49.5755 1.75771 50.0792 1.00489 50.7546 0.882217L50.7529 0.883898Z" fill="black"/>
<path d="M60.022 10.2505C59.0197 9.65903 57.9791 9.15827 56.9017 8.74993C56.4665 8.58524 56.2096 8.19875 56.1346 7.59212C56.1163 7.44256 56.0512 7.31821 55.9395 7.21739C55.5526 6.87794 55.1173 6.641 54.6353 6.50321C54.4836 6.03605 54.4319 5.56218 54.4802 5.0799C54.5019 4.88833 54.597 4.83624 54.7671 4.92362L58.9046 7.11488C59.0531 7.19386 59.1398 7.31821 59.1631 7.48625C59.2515 8.15506 59.5934 8.61885 60.1888 8.87764C61.7064 9.53636 63.1873 10.2203 64.6348 10.9277C65.4136 11.3126 65.3786 11.4134 64.5298 11.2302L60.0203 10.2505H60.022Z" fill="black"/>
<path d="M77.0658 16.9772L80.6397 22.5327C80.7281 22.6671 80.8498 22.7226 81.0083 22.7024L81.8204 22.5781L83.2913 24.6147C82.4525 24.3089 81.9622 24.4904 81.8204 25.1541C81.4335 26.9539 81.19 28.4696 81.0933 29.698C80.8115 28.7872 80.9616 27.5235 79.8859 27.0984C80.031 26.6312 80.1394 26.1758 80.2128 25.7305C80.2878 25.255 80.2128 24.813 79.991 24.408C79.7341 23.9442 79.4173 23.5157 79.042 23.1225C78.8336 21.832 79.0054 19.7684 77.1025 19.9701C75.78 17.841 73.7571 16.4462 71.0354 15.7875C64.8166 14.2835 58.5244 12.8501 52.1605 11.4856C52.6358 11.1294 53.3245 11.0487 54.2268 11.247C57.9574 12.0654 64.3914 13.5324 73.532 15.6497C74.9845 15.9858 76.1636 16.4277 77.0658 16.9772Z" fill="black"/>
<path d="M47.1741 12.388L47.6143 15.7371C46.6037 16.8042 45.5547 16.7369 44.4674 15.5304L45.1945 13.5442C45.1762 14.1844 45.2479 14.67 45.408 14.9994C45.6064 15.4111 46.0984 15.5825 46.507 15.3808C46.7655 15.2531 46.9406 14.9994 46.9656 14.7104L47.1741 12.3863V12.388Z" fill="black"/>
<path d="M51.1348 13.9844C51.3283 14.2919 51.6502 14.4213 52.0971 14.3692L50.8163 16.5924C50.5495 16.4546 50.286 16.6008 50.0258 17.031C45.5297 24.4383 41.0269 31.8422 36.5192 39.2427C36.5008 39.2696 36.5008 39.3049 36.5192 39.3486C36.5275 39.3637 36.5358 39.3839 36.5425 39.4074C36.4575 39.4343 36.3874 39.4444 36.334 39.4343C36.2106 39.4125 36.1689 39.3436 36.2106 39.2243C36.4041 38.6748 36.3757 38.1354 36.1239 37.6043C36.0539 37.4581 36.0505 37.3086 36.1106 37.1557L37.0828 34.6804L39.7712 30.1416C40.3882 30.0626 40.7851 29.9349 40.9602 29.7568C41.4272 29.2964 41.4539 28.7435 41.042 28.0999L48.0229 16.1471C49.8524 16.91 50.888 16.1891 51.1332 13.9827L51.1348 13.9844Z" fill="black"/>
<path d="M72.8882 35.3543L73.1517 39.3772C73.1601 39.5301 73.2084 39.6679 73.2968 39.7939L73.5336 40.1367C73.4252 41.3718 73.517 42.5515 73.8105 43.674C74.1307 44.1227 74.1507 44.6671 73.8689 45.3074C73.8055 45.4485 73.6987 45.5208 73.5503 45.5275C70.1616 45.6434 67.3949 45.8871 65.2485 46.2602C64.5181 46.3845 63.6492 46.7508 62.6369 47.3592C59.8902 48.1674 58.4694 50.0747 58.3726 53.0793C58.3126 54.9647 58.913 56.5998 60.1754 57.9844C60.3572 58.1793 60.3155 58.2869 60.0487 58.3054C59.9036 58.3138 59.7602 58.3104 59.6167 58.2919C59.3166 58.2533 59.0397 58.102 58.8446 57.8668C57.2036 55.9024 56.75 53.5347 57.4821 50.7654C58.386 47.3508 61.0059 46.1711 64.2212 45.919C66.3592 45.7544 68.4155 45.6149 70.3934 45.5023C70.7786 45.4788 71.0738 45.146 71.0504 44.7579C71.0504 44.7461 71.0488 44.7327 71.0471 44.7209L69.6846 32.6622C69.6596 32.4371 69.8197 32.2321 70.0448 32.2068C70.0498 32.2068 70.0565 32.2068 70.0615 32.2068L70.7069 32.1648C71.0004 32.1464 71.0755 32.0086 70.9287 31.7481L67.1047 24.8651C66.9446 24.5794 66.7011 24.3492 66.4059 24.2064L52.7642 17.5755C52.8826 17.2058 53.0877 16.8848 53.3812 16.6092C53.4813 16.5151 53.593 16.4983 53.7181 16.5588L69.6579 24.3526C69.8147 24.4265 69.9431 24.5492 70.0265 24.7004L73.9873 31.7935C74.0456 31.8976 74.0123 32.0287 73.9105 32.0909C73.6571 32.2472 73.3785 32.2741 73.08 32.1732C72.9299 32.1245 72.7682 32.2068 72.7198 32.3564C72.7081 32.39 72.7048 32.427 72.7065 32.4623L72.8882 35.3593V35.3543Z" fill="black"/>
<path d="M75.3848 20.286C75.2213 20.6271 75.3281 20.943 75.7033 21.2337L76.794 26.8211C76.8207 26.9707 76.8974 27.09 77.0208 27.1774C77.4744 27.5134 77.8163 28.1436 78.0431 29.0678C78.3466 29.6661 78.495 30.2072 78.4884 30.6928C78.48 31.291 78.3449 31.3213 78.0848 30.7835L74.6827 23.8048C74.8378 21.9933 74.4459 21.1716 73.5103 21.343C73.2101 21.1043 72.7432 20.9077 72.1078 20.7531C72.6831 19.8104 73.7755 19.6541 75.3865 20.286H75.3848Z" fill="black"/>
<path d="M36.9378 27.5891C36.8777 27.7403 36.746 27.8529 36.5876 27.8865L34.1444 28.4175C33.7758 28.4965 33.6941 28.3772 33.9042 28.0613C35.4935 25.6633 37.0562 23.2872 38.5905 20.9313C38.7305 20.7145 38.924 20.6254 39.1725 20.6658C39.3209 20.6926 39.4193 20.8338 39.3943 20.98C39.3909 20.9968 39.3876 21.0119 39.3809 21.027L36.9378 27.5891Z" fill="black"/>
<path d="M97.375 24.4635L98.0738 28.436C98.0988 28.5822 98.1822 28.6628 98.3273 28.678L99.6347 28.8057C99.7281 29.1199 99.7715 29.4274 99.7615 29.7299H98.6758C98.5124 29.7265 98.4323 29.8072 98.4357 29.9719C98.4723 31.6187 98.0187 33.1899 97.0782 34.6855C97.4467 32.595 97.39 30.9717 96.9064 29.8122L95.8441 25.0113C95.8107 24.8584 95.724 24.7525 95.5856 24.6903C95.3371 24.5811 95.0269 24.5189 94.655 24.5072L97.375 24.4618V24.4635Z" fill="black"/>
<path d="M92.0434 24.5139L91.8433 24.5727C91.6765 24.6214 91.6165 24.7307 91.6615 24.9021C91.7032 25.0516 91.7949 25.181 91.9333 25.2903L91.4564 27.7285L90.6209 26.0582C90.4808 25.7809 90.3807 25.7944 90.3173 26.1002C89.767 28.7603 89.3718 31.5212 89.1316 34.383C89.1099 34.6485 89.2317 34.7712 89.4952 34.7493L89.6719 34.7409C89.797 34.7291 89.8954 34.635 89.9121 34.5124C90.0789 33.0907 90.2056 31.7246 90.294 30.4122C90.3157 30.0895 90.5992 29.8711 91.1478 29.7585L90.6342 34.5594C90.6092 34.7947 90.4791 34.9123 90.244 34.9123L88.9181 34.9207C88.718 34.9207 88.5379 34.8064 88.4545 34.6283C88.2511 34.1897 87.9992 33.8486 87.6957 33.6083L89.0666 24.85C89.0866 24.7357 89.0115 24.6265 88.8965 24.6063C88.8864 24.6046 88.8764 24.603 88.8664 24.603L86.9369 24.5525L92.0417 24.5156L92.0434 24.5139Z" fill="black"/>
<path d="M106.622 29.9921L107.927 31.4792L105.9 31.4876C105.658 31.0658 105.38 30.7197 105.065 30.4491C104.79 30.2139 104.394 30.0828 103.879 30.0559C103.037 30.0105 102.193 29.9148 101.344 29.7669L106.621 29.9904L106.622 29.9921Z" fill="black"/>
<path d="M94.3014 29.8038C93.6961 29.8106 93.3725 30.0542 93.3292 30.5365C93.2058 31.9178 93.0807 33.2403 92.9573 34.4989C92.9389 34.672 92.7888 34.7997 92.6171 34.7913L92.3853 34.7829C92.1968 34.7745 92.1151 34.6754 92.1351 34.4855L92.6704 29.8643L94.3014 29.8055V29.8038Z" fill="black"/>
<path d="M31.8963 31.2725C31.6778 31.2507 31.4944 31.2641 31.346 31.3145C31.1909 31.37 31.1292 31.4759 31.1592 31.6355C31.4594 33.2806 31.7746 33.4957 32.1081 32.2858L33.4289 36.2768C33.4873 36.4482 33.4823 36.6347 33.4156 36.8028L32.475 39.1503C32.4116 39.3032 32.2999 39.3789 32.1381 39.3789L28.2374 39.3705C28.5342 39.4108 28.8094 39.4041 29.0646 39.352C29.213 39.3217 29.3214 39.2377 29.3914 39.0999L30.1903 37.485C31.0525 38.9487 32.6968 38.1387 32.1298 36.465C31.5945 34.8703 31.0558 33.2823 30.5171 31.7061C30.4654 31.5498 30.5171 31.4439 30.6672 31.3851C31.0341 31.244 31.4427 31.2087 31.893 31.2759L31.8963 31.2725Z" fill="black"/>
<path d="M35.4168 31.4977C35.2267 31.896 35.135 32.2119 35.0132 32.6286C34.8582 33.1412 34.673 33.1529 34.4546 32.6656C34.3245 32.3732 34.2211 32.0472 34.146 31.691C34.106 31.5044 34.1811 31.3918 34.3679 31.3515L35.1667 31.1818C35.4602 31.1213 35.5436 31.2255 35.4168 31.4977Z" fill="black"/>
<path d="M99.8649 31.2188C99.9466 31.5733 99.8766 31.9245 99.6564 32.2757C99.4329 32.2606 99.3279 32.1363 99.3429 31.9044C99.3646 31.6237 99.538 31.3952 99.8649 31.2188Z" fill="black"/>
<path d="M101.386 31.3229C101.686 31.4238 102.028 31.4557 102.411 31.4187C102.288 32.1027 102.518 32.4808 103.107 32.553C104.681 32.7513 106.25 32.9109 107.816 33.0336L107.972 42.7666L106.309 42.7901L106.314 33.4688C106.314 33.289 106.179 33.1378 106 33.121L101.122 32.7412L101.386 31.3229Z" fill="black"/>
<path d="M83.5732 33.3277C83.7666 33.4588 84.1885 33.5831 84.8356 33.6991C84.327 33.5982 84.0735 33.7243 84.0735 34.0738C84.0701 35.6181 83.9467 37.1624 83.7016 38.7101C83.6832 38.8344 83.6132 38.8831 83.4931 38.8512L83.3747 38.8243C83.2863 38.8025 83.2279 38.7235 83.2346 38.6361L83.5748 33.3277H83.5732Z" fill="black"/>
<path d="M76.9791 44.3294C77.4794 43.9882 77.6095 43.6337 77.3693 43.2673C77.0992 42.8556 76.8474 42.4305 76.6105 41.9902L75.8968 36.097C75.8117 35.3795 75.9435 35.3375 76.292 35.9693L80.4346 43.4824C80.5847 43.7597 80.4863 44.1075 80.2144 44.2588C80.131 44.3058 80.036 44.3294 79.9393 44.3294H76.9774H76.9791Z" fill="black"/>
<path d="M93.5477 39.0713L92.1084 40.2527C91.9633 40.1031 91.8983 39.8729 91.9133 39.562C91.9467 38.8092 91.98 38.1034 92.0134 37.4481C92.02 37.2918 92.1001 37.2145 92.2535 37.2145L93.2208 37.2279C93.4109 37.2279 93.5093 37.3254 93.516 37.5203L93.5477 39.0713Z" fill="black"/>
<path d="M17.5175 39.2226L14.2438 45.2082C14.1887 45.3107 14.2254 45.4384 14.3272 45.4939C14.3455 45.504 14.3639 45.5107 14.3839 45.5157C14.8775 45.625 15.3528 45.8233 15.8097 46.1106L17.4041 47.5574C21.3331 53.0356 17.5675 59.5422 11.6455 61.0797C8.70203 61.8427 5.7252 61.3805 2.71167 59.6934C1.51594 58.87 0.652072 57.971 0.118409 56.998C-0.0783785 56.6384 -0.0333507 56.3124 0.25516 56.0183L2.08462 54.1699C2.39314 53.8624 2.61495 53.9161 2.74836 54.3346C2.88845 54.7647 3.11692 55.1193 3.43879 55.3966C3.83236 55.9948 4.33267 56.4889 4.93805 56.8787C6.56071 58.0936 8.31012 58.344 10.1829 57.6332C13.7385 56.2872 14.047 51.4006 11.4771 48.9623C10.8717 48.2884 10.1779 47.8297 9.39746 47.5894C8.82211 47.3121 8.25843 47.1844 7.70809 47.2096C7.59969 47.213 7.50963 47.1289 7.50629 47.0197C7.50629 46.9844 7.51297 46.9475 7.53131 46.9172L9.97949 42.538C10.2547 42.2389 10.4148 41.9196 10.4564 41.5819C10.4781 41.4239 10.4081 41.3433 10.248 41.3433L5.77856 41.3567L4.52446 41.3937C4.21593 41.4054 4.09753 41.2609 4.17091 40.9585L4.80296 38.3689C4.86967 38.095 5.04311 37.9572 5.32495 37.9572H17.896C18.0711 37.9572 18.1195 38.0362 18.0411 38.1958L17.5191 39.2259L17.5175 39.2226Z" fill="white"/>
<path d="M17.5175 39.2226L19.3152 39.2041C19.4153 39.2041 19.497 39.2864 19.4953 39.3856C19.4953 39.4141 19.487 39.4444 19.4737 39.4696L15.8081 46.1089C15.3511 45.8216 14.8758 45.6233 14.3822 45.5141C14.2688 45.4905 14.1971 45.3779 14.2204 45.2654C14.2238 45.2452 14.2321 45.2267 14.2421 45.2082L17.5158 39.2226H17.5175Z" fill="black"/>
<path d="M27.9856 39.3873C27.8005 39.3789 27.6787 39.4225 27.617 39.52C26.7298 40.9484 25.7709 42.7078 24.7369 44.8016C23.6496 47.0012 23.1392 48.8866 23.206 50.4578C23.3644 54.1917 25.926 57.5139 29.4865 58.7322C30.1069 58.9456 31.3276 59.1254 33.1471 59.2716C34.6513 59.3909 36.1539 59.5741 37.6515 59.8211C35.0516 59.7321 32.465 59.5623 29.8951 59.3086C27.672 59.0918 26.1127 58.7288 25.2122 58.2197C22.8908 56.9056 21.3698 55.1361 20.6527 52.9112C20.4559 52.3046 20.3675 52.3197 20.3892 52.9566C20.5793 58.6952 15.7881 62.6493 10.293 62.5383C7.24946 62.4812 4.7229 61.5318 2.70833 59.6917C5.72018 61.3789 8.69869 61.841 11.6422 61.0781C17.5641 59.5405 21.3298 53.0339 17.4007 47.5558C18.7999 48.5203 19.6888 49.8126 20.0674 51.4358C20.1274 51.7013 20.2074 51.7081 20.3042 51.4543C20.3642 51.3014 20.3876 51.1485 20.3725 50.9922C20.2325 49.379 20.3459 48.1036 20.7094 47.1659C21.4666 45.2099 22.719 42.7145 24.4701 39.6797C24.5485 39.5419 24.6685 39.473 24.8286 39.4696L27.9856 39.3873Z" fill="black"/>
<path d="M41.0386 41.1937C41.3021 42.2104 41.7541 43.1833 42.3961 44.1126C41.7274 46.3727 41.0586 48.7102 40.3932 51.1233C39.8813 52.9835 39.7262 54.4757 39.9263 55.5982C40.0897 56.5107 40.8302 57.0333 42.1476 57.1677C41.3822 57.0938 40.6384 57.0787 39.9179 57.1224C39.0774 57.1728 38.5187 56.9896 37.7199 56.8384C37.0412 55.2739 36.9511 53.6355 37.4481 51.9232C38.3653 48.7539 39.5627 45.1763 41.0403 41.192L41.0386 41.1937Z" fill="black"/>
<path d="M9.97948 42.5347L6.10043 42.5481C5.87028 42.5481 5.6835 42.3582 5.6835 42.1263C5.6835 42.1079 5.6835 42.0911 5.68684 42.0726L5.77689 41.3533L10.2463 41.3399C10.4064 41.3399 10.4765 41.4189 10.4548 41.5785C10.4131 41.918 10.253 42.2356 9.97782 42.5347H9.97948Z" fill="black"/>
<path d="M87.3789 41.9852L88.9865 42.0087L89.0049 42.7683L87.4973 42.7767C87.554 42.454 87.5156 42.1902 87.3789 41.9852Z" fill="black"/>
<path d="M73.9139 47.4902C74.1807 47.3675 74.3325 47.2432 74.3725 47.1155C74.4359 46.9206 74.3792 46.7928 74.2007 46.7357L77.0658 46.6937C77.2226 46.6903 77.3427 46.7559 77.4244 46.8903C77.4661 46.9575 77.4811 47.0315 77.4661 47.1104C77.4361 47.2718 77.341 47.3692 77.1792 47.4028C76.1169 47.6196 75.0279 47.6482 73.9139 47.4902Z" fill="black"/>
<path d="M80.4813 58.7389C78.0281 58.2953 77.2476 56.2536 77.1792 54.0069L78.1882 53.9649L81.045 53.9918C81.2668 53.9918 81.4002 53.8842 81.4485 53.6708C81.4752 53.5481 81.4786 53.4238 81.4569 53.2961C81.4352 53.1465 81.3501 53.0675 81.1984 53.0574L78.1098 52.8608C77.8396 52.8457 77.6912 52.7029 77.6595 52.4307C77.6529 52.3752 77.6545 52.3214 77.6645 52.266C77.7012 52.0862 77.8096 51.9904 77.9914 51.9769L81.3618 51.7064C81.5769 51.6913 81.7137 51.5787 81.7754 51.3669L81.8254 51.1838C81.8605 51.0577 81.7854 50.925 81.657 50.8897C81.6387 50.8847 81.6186 50.8813 81.5986 50.8813L78.947 50.8309C78.7719 50.8275 78.6902 50.7385 78.7018 50.5603C78.7085 50.4326 78.7752 50.32 78.907 50.2209C79.0637 50.2612 79.1304 50.2646 79.1071 50.2343L82.0456 50.157C82.2907 50.1503 82.4525 50.031 82.5309 49.7958L82.5892 49.626C82.6276 49.5134 82.5676 49.3908 82.4558 49.3538C82.4325 49.3454 82.4091 49.342 82.3858 49.342L79.9793 49.3925C79.7758 49.3958 79.6991 49.2984 79.7475 49.1001C79.8042 48.8749 80.0827 48.7539 80.578 48.7388C80.618 48.7321 80.658 48.7287 80.7014 48.7253C85.5661 48.5909 90.4157 48.1708 95.247 47.4667C101.224 47.1794 107.043 47.6751 112.704 48.9539C114.507 49.3605 116.033 50.6645 116.128 52.6928C116.237 55.0151 115.389 56.6216 113.585 57.5156C112.816 57.8937 111.47 58.1105 109.548 58.1659C105.166 58.2903 100.715 58.381 96.196 58.4365C93.7044 58.4667 91.0845 58.5289 88.3395 58.6247C85.7212 58.7137 83.1012 58.749 80.4829 58.7339L80.4813 58.7389ZM112.476 50.7082C113.345 53.7229 112.584 55.5814 110.196 56.2872L85.2092 57.3996C83.9134 56.6485 83.2647 55.5579 83.2647 54.1279C83.2647 53.9901 83.1646 53.8724 83.0278 53.8489L82.9144 53.8304C82.8144 53.8153 82.7577 53.8573 82.7427 53.9581C82.5342 55.4251 82.9695 56.6233 84.0501 57.5509C84.7406 57.9105 85.4727 58.0819 86.2482 58.0634C93.7695 57.8618 101.257 57.5559 108.715 57.1442L111.335 57.0988C112.734 56.9039 113.827 56.2469 114.614 55.126C116.235 52.8205 114.677 50.4864 112.289 49.8226C112.111 49.7705 112.041 49.8361 112.081 50.0193C112.137 50.2848 112.269 50.515 112.476 50.7099V50.7082ZM107.108 50.1218C107.104 49.9873 106.993 49.8831 106.859 49.8865L88.9648 50.4209C88.8314 50.4242 88.728 50.5368 88.7314 50.6713L88.7497 51.293C88.753 51.4274 88.8648 51.5316 88.9982 51.5283L106.893 50.9939C107.026 50.9905 107.129 50.8779 107.126 50.7435L107.108 50.1218ZM85.9847 55.3478C86.6401 55.3462 87.1671 54.2724 87.1621 52.9499C87.1571 51.6274 86.6234 50.5587 85.968 50.5603C85.3126 50.562 84.7856 51.6358 84.7906 52.9583C84.7956 54.2808 85.3293 55.3495 85.9847 55.3478ZM107.096 53.4439C107.091 53.2944 106.968 53.1784 106.821 53.1818L88.9898 53.7145C88.8414 53.7195 88.7263 53.8439 88.7297 53.9918L88.7464 54.5497C88.7514 54.6992 88.8748 54.8152 89.0215 54.8118L106.853 54.2791C107.001 54.2741 107.116 54.1497 107.113 54.0018L107.096 53.4439Z" fill="#FFCC00"/>
<path d="M95.2454 47.4717C90.4141 48.1758 85.5644 48.5959 80.6997 48.7304L95.2454 47.4717Z" fill="black"/>
<path d="M9.39746 47.5877C10.1779 47.828 10.8717 48.2867 11.4771 48.9606L9.27406 48.4111C9.12229 48.3708 9.06059 48.2733 9.08727 48.1187C9.11229 47.9691 9.21402 47.7927 9.3958 47.5877H9.39746Z" fill="black"/>
<path d="M69.708 47.7053C68.8574 48.0414 68.1737 48.5573 67.66 49.2513C67.57 49.3756 67.4482 49.4462 67.2965 49.4614C66.3009 49.5706 65.3152 49.6344 64.3396 49.6496C63.9711 49.6529 63.7776 49.8243 63.7626 50.1671L62.0866 50.1806C62.0866 49.9705 62.1766 49.7756 62.3551 49.5991L64.2629 49.421C64.4014 49.4093 64.5281 49.337 64.6131 49.2244C65.8989 47.4667 67.4282 47.5675 69.708 47.7053Z" fill="black"/>
<path d="M78.3966 48.6581L80.5763 48.7455C80.0794 48.7606 79.8025 48.8816 79.7458 49.1068C79.6974 49.3051 79.7742 49.4025 79.9776 49.3992L82.3841 49.3488C82.5025 49.3488 82.5992 49.4429 82.5992 49.5622C82.5992 49.5857 82.5959 49.6109 82.5876 49.6328L82.5292 49.8025C82.4508 50.0377 82.289 50.1587 82.0439 50.1638L79.1054 50.2411C80.1344 49.4109 79.6341 49.137 77.6028 49.4177C77.8413 49.0127 78.1065 48.7589 78.3983 48.6581H78.3966Z" fill="black"/>
<path d="M106.863 49.8857L88.9664 50.421C88.8338 50.4249 88.7295 50.5364 88.7335 50.67L88.7518 51.2932C88.7558 51.4267 88.8664 51.5318 88.999 51.5279L106.895 50.9927C107.028 50.9887 107.132 50.8772 107.128 50.7436L107.11 50.1204C107.106 49.9869 106.995 49.8818 106.863 49.8857Z" fill="black"/>
<path d="M63.3324 51.0695L63.7326 51.0376C63.9027 51.0258 64.0094 50.9351 64.0545 50.767C64.0962 50.6175 64.0962 50.4326 64.0545 50.2125L66.9012 50.157C67.013 50.1537 67.078 50.2074 67.0963 50.3167C67.133 50.5452 67.063 50.7553 66.8879 50.9435C66.7928 51.0426 66.6611 51.0981 66.5243 51.0947L63.3324 51.0678V51.0695Z" fill="black"/>
<path d="M77.0525 50.2646L78.9053 50.2276C78.7752 50.3251 78.7068 50.4377 78.7002 50.5671C78.6885 50.7435 78.7702 50.8342 78.9453 50.8376L81.5969 50.888C81.7304 50.8914 81.8354 51.0006 81.8321 51.1317C81.8321 51.1518 81.8288 51.1703 81.8238 51.1888L81.7737 51.372C81.7137 51.582 81.5753 51.6946 81.3601 51.7114L77.9897 51.982C77.8079 51.9937 77.6995 52.0895 77.6629 52.271C77.6545 52.3265 77.6528 52.3802 77.6579 52.4357C77.6879 52.7079 77.838 52.8507 78.1081 52.8659L81.1967 53.0625C81.3485 53.0709 81.4352 53.1515 81.4552 53.3011C81.4769 53.4288 81.4735 53.5548 81.4469 53.6758C81.3985 53.8892 81.2634 53.9968 81.0433 53.9968L78.1865 53.9699C78.7802 53.2524 78.1448 52.9213 76.2787 52.9768L76.4871 51.8274C77.0141 51.8274 77.5211 51.8089 78.0081 51.7719C78.41 51.7417 78.6518 51.5635 78.7302 51.2359C78.7702 51.0796 78.7102 50.9838 78.5534 50.9468C77.923 50.804 77.3143 50.8006 76.7273 50.9384C76.7723 50.6696 76.8807 50.4461 77.0491 50.2663L77.0525 50.2646Z" fill="black"/>
<path d="M85.9841 55.3476C86.6389 55.3453 87.1661 54.2721 87.1615 52.9505C87.1569 51.6289 86.6224 50.5595 85.9675 50.5618C85.3126 50.5641 84.7855 51.6373 84.7901 52.9588C84.7946 54.2804 85.3292 55.3499 85.9841 55.3476Z" fill="black"/>
<path d="M112.476 50.7082C113.768 53.0138 113.388 55.1445 111.335 57.0972L108.715 57.1425C109.357 56.919 109.851 56.635 110.196 56.2872C112.584 55.5831 113.345 53.7229 112.476 50.7082Z" fill="black"/>
<path d="M61.7164 51.125L62.9872 51.1434C62.8904 51.4056 62.9605 51.6257 63.1956 51.8022L61.5329 51.8845L61.7147 51.125H61.7164Z" fill="black"/>
<path d="M75.5404 51.3142L70.0215 51.4306C69.9534 51.4321 69.8993 51.4889 69.9007 51.5576L69.9115 52.0767C69.9129 52.1454 69.9693 52.1999 70.0375 52.1984L75.5563 52.0819C75.6245 52.0805 75.6786 52.0237 75.6771 51.955L75.6663 51.4359C75.6649 51.3672 75.6085 51.3127 75.5404 51.3142Z" fill="black"/>
<path d="M63.5325 51.8476L66.5577 51.824C66.7211 51.8207 66.8545 51.9501 66.8579 52.1131C66.8579 52.1181 66.8579 52.1215 66.8579 52.1265L66.8529 52.2861C66.8479 52.5029 66.6727 52.676 66.4576 52.6743L63.6375 52.6609C63.8527 52.1887 63.8177 51.9164 63.5325 51.8459V51.8476Z" fill="black"/>
<path d="M60.2304 52.6121L60.122 53.3162C59.9703 53.3229 59.8352 53.2591 59.7185 53.1247C59.6284 53.0222 59.6367 52.8676 59.7368 52.7751C59.7802 52.7365 59.8369 52.713 59.8952 52.713C60.002 52.713 60.1137 52.6793 60.2321 52.6121H60.2304Z" fill="black"/>
<path d="M61.4345 52.6121L62.6236 52.7214L62.8921 53.3162C62.3234 53.2944 61.8348 53.3549 61.4295 53.4943L61.4345 52.6104V52.6121Z" fill="black"/>
<path d="M106.82 53.1826L88.99 53.7158C88.8418 53.7202 88.7252 53.8449 88.7296 53.9942L88.746 54.5519C88.7504 54.7012 88.8741 54.8187 89.0224 54.8143L106.852 54.2811C107 54.2766 107.117 54.152 107.113 54.0026L107.096 53.445C107.092 53.2956 106.968 53.1781 106.82 53.1826Z" fill="black"/>
<path d="M63.5458 54.1178C63.7576 53.9279 63.816 53.6826 63.7226 53.3818L66.461 53.3683C66.7094 53.3683 66.8379 53.4927 66.8462 53.7397L66.8512 53.9094C66.8562 54.0388 66.7561 54.1463 66.6294 54.1514C66.6261 54.1514 66.6227 54.1514 66.6194 54.1514L63.5442 54.1195L63.5458 54.1178Z" fill="black"/>
<path d="M61.4345 53.8876C61.5746 54.1463 61.8831 54.2186 62.3618 54.1027C62.4652 55.8469 63.3757 57.2568 65.0951 58.3306H63.329C63.3841 58.2398 63.3824 58.1642 63.324 58.1071C62.185 56.9241 61.5563 55.5176 61.4345 53.8876Z" fill="black"/>
<path d="M85.2092 57.3979C84.849 57.3711 84.462 57.4215 84.0518 57.5492C82.9711 56.6216 82.5342 55.4251 82.7443 53.9565C82.7593 53.8556 82.8177 53.8136 82.9161 53.8287L83.0295 53.8472C83.1662 53.8708 83.2646 53.9884 83.2663 54.1262C83.2663 55.5562 83.915 56.6468 85.2108 57.3979H85.2092Z" fill="black"/>
<path d="M76.272 54.0119L77.1809 54.0069C77.2493 56.2536 78.0298 58.2953 80.4829 58.7389C78.9236 58.8179 77.4644 58.6835 76.1052 58.3356L77.3176 58.3726C77.426 58.3776 77.5161 58.2919 77.5211 58.1844C77.5211 58.1441 77.5128 58.1054 77.4911 58.0718C76.6856 56.8451 76.2803 55.4924 76.2737 54.0136L76.272 54.0119Z" fill="black"/>
<path d="M60.2171 54.0943C60.3922 55.7511 61.121 57.1728 62.4018 58.3591C60.7191 57.6702 59.6985 56.3779 59.3416 54.4824C59.2749 54.1312 59.4099 54.0153 59.7452 54.1346C59.8786 54.18 60.0353 54.1665 60.2171 54.0926V54.0943Z" fill="black"/>
<path d="M69.8778 55.0374L69.8677 55.5666C69.8664 55.6353 69.9206 55.692 69.9887 55.6933L75.5178 55.8003C75.5859 55.8016 75.6422 55.747 75.6435 55.6784L75.6536 55.1491C75.6549 55.0805 75.6008 55.0237 75.5326 55.0224L70.0036 54.9154C69.9354 54.9141 69.8791 54.9687 69.8778 55.0374Z" fill="black"/>
<path d="M4.93804 56.877C4.33267 56.4872 3.83236 55.9931 3.43878 55.3949C3.76231 55.1966 4.00413 55.2605 4.16089 55.5865C4.36435 56.0099 4.62284 56.4401 4.93804 56.877Z" fill="black"/>
<path d="M52.7642 55.4756C52.5857 55.8419 52.5524 55.9746 52.6641 55.8738C48.4615 57.5525 44.3073 58.5759 40.2031 58.9439L46.4386 56.8854L52.7642 55.4756Z" fill="black"/>
<path d="M79.5774 63.9465C79.5657 65.7681 79.564 67.5947 79.5724 69.428C79.579 70.5943 79.9209 71.4244 80.598 71.9218C82.5876 72.846 84.8039 72.2427 84.8573 69.67C84.9023 67.6115 84.909 65.5177 84.8756 63.392C84.8723 63.2189 84.9573 63.1315 85.1291 63.1315L103.514 63.1231C103.671 63.1231 103.781 63.1971 103.841 63.3466C103.911 63.5231 103.946 63.718 103.946 63.9331L103.851 65.7731C103.839 66.0218 103.632 66.2168 103.384 66.2168H95.4505C95.2237 66.2168 95.1086 66.3327 95.1053 66.5646L95.0869 67.7039C95.0836 67.8955 95.177 68.0098 95.3688 68.0467C95.5355 68.077 95.704 68.0753 95.8724 68.0417L102.158 68.0283C102.315 68.0283 102.42 68.1022 102.471 68.2518C102.55 68.4652 102.588 68.7071 102.585 68.9743L102.58 69.9675C102.58 70.2346 102.363 70.4531 102.095 70.4531L95.3454 70.4346C95.1887 70.4346 95.1069 70.5136 95.1053 70.6732L95.0786 71.9453C95.0752 72.1133 95.152 72.2276 95.3054 72.2881C95.4905 72.362 95.6823 72.3654 95.8824 72.3016L103.621 72.2965C103.854 72.2965 103.931 72.1873 103.852 71.9671C103.816 71.8663 103.804 71.7655 103.816 71.6647C103.841 71.5067 103.929 71.4277 104.084 71.4311L108.67 71.4866C108.819 71.4899 108.957 71.5286 109.089 71.6059C110.278 72.3251 111.519 72.7133 112.663 71.7386C112.781 71.7269 112.861 71.6327 112.903 71.4597C112.951 71.2496 112.823 71.0412 112.614 70.9925C112.596 70.9875 112.576 70.9858 112.558 70.9841C109.946 70.7556 107.463 70.7186 104.96 69.7675C103.984 69.0348 103.579 68.0955 103.742 66.9494C103.912 66.242 104.223 65.59 104.673 64.9951C105.717 63.9146 107.031 63.2744 108.615 63.0727C111.954 62.6425 116.058 62.6929 118.021 65.842L118.358 66.7343C118.408 66.8721 118.338 67.025 118.201 67.0755C118.171 67.0872 118.139 67.0923 118.108 67.0923L113.28 67.0368C113.145 67.0334 113.015 66.9847 112.911 66.899C112.016 66.1613 110.982 66.0134 109.809 66.4554C109.501 66.568 109.319 66.7763 109.264 67.0771C109.227 67.267 109.299 67.3914 109.477 67.4519C109.738 67.5409 109.969 67.5577 110.173 67.5023L113.602 67.8132C113.91 67.9257 114.204 67.9694 114.482 67.9459C116.163 68.1745 117.497 68.9004 118.488 70.1237C118.481 72.1822 117.663 73.6778 116.032 74.6088C113.135 76.2606 108.584 75.78 105.74 74.6088C105.667 74.4844 105.562 74.3886 105.422 74.3248C105.267 74.0593 105.075 73.8408 104.845 73.6711C104.641 73.5215 104.544 73.5736 104.554 73.8274L104.599 74.9616C104.608 75.1767 104.443 75.3565 104.233 75.3633C104.228 75.3633 104.223 75.3633 104.219 75.3633L90.6859 75.3683L90.1639 75.2944C90.0088 75.2725 89.9337 75.1835 89.9371 75.0238L89.9738 73.9534L89.9287 71.7521C89.9221 71.4445 89.8487 71.4261 89.7069 71.6966C89.6102 71.8798 89.5218 72.0697 89.4435 72.2679C88.8031 73.9063 87.3822 74.8575 85.5694 75.2557C82.4174 75.9481 79.4673 75.6842 76.7173 74.4642L75.3965 73.004L74.9745 72.0562C74.9378 71.9755 74.8445 71.9403 74.7661 71.9756C74.7377 71.989 74.7127 72.0108 74.6977 72.0377C74.2207 72.8292 73.6937 73.4795 72.99 74.0425C72.8182 74.1836 72.8265 74.3096 73.0167 74.4222L73.7788 74.8659C73.7238 74.8323 73.6804 74.8911 73.647 75.0389L71.0905 76.1329C70.8787 76.2236 70.6335 76.1984 70.4417 76.064L69.6646 75.5145C69.5312 75.4238 69.3844 75.3902 69.2243 75.4137C66.3092 75.901 63.4925 75.5582 60.7775 74.3836C59.7818 73.5635 59.028 72.5603 58.5161 71.3773L58.3076 70.3523C58.2559 70.0935 58.1392 70.0582 57.9574 70.2464C57.7189 70.5001 57.4471 70.6799 57.1452 70.7858C56.9067 70.8682 56.8767 70.9975 57.0585 71.174C57.282 71.3908 57.5488 71.537 57.8573 71.6126C58.0391 71.9638 58.2509 72.2478 58.4927 72.4646C58.5594 73.3585 58.7595 74.2004 59.0914 74.9902C59.1464 75.1213 59.0847 75.2708 58.953 75.3263C58.9213 75.3397 58.8863 75.3465 58.8513 75.3465L54.3418 75.2641C53.9816 74.7298 53.6714 73.95 53.4112 72.9216C52.9476 72.278 52.3122 71.9302 51.5034 71.8781C50.2977 71.8041 49.0886 71.7941 47.8745 71.8462C47.7194 71.8529 47.6444 71.9335 47.6477 72.0881L47.7061 75.0305C47.7094 75.2003 47.5743 75.3397 47.4059 75.3414C47.4059 75.3414 47.4025 75.3414 47.4009 75.3414L38.3036 75.3145C37.9134 75.202 37.5865 74.8205 37.323 74.1702C37.1996 73.6274 36.9328 73.3569 36.5242 73.3602C34.1527 73.372 31.8813 73.3653 29.7066 73.3367C29.4281 73.3316 29.1696 73.4829 29.0396 73.7299L28.3041 75.1078C28.2191 75.2658 28.089 75.3465 27.9139 75.3465H19.3669C19.1285 75.3918 18.9333 75.3834 18.7849 75.3196C18.6432 75.2557 18.5714 75.1465 18.5714 74.9902L18.5664 69.7372C18.6932 69.1911 18.6782 68.6819 18.5214 68.2081C18.4547 68.0131 18.3697 68.003 18.2663 68.1812L14.3238 75.0003C14.1937 75.2238 13.9569 75.3616 13.7018 75.3616L10.5098 75.3347C10.2613 75.2675 10.0595 75.0944 9.9061 74.8138C8.86379 72.9199 7.7331 70.9757 6.51401 68.9844C6.43897 68.6332 6.24718 68.3307 5.94199 68.0736C5.80524 67.961 5.73853 67.993 5.74187 68.1694L5.78356 75.1935C5.78356 75.2843 5.71018 75.3582 5.62013 75.3582L1.42755 75.3666C1.2391 75.3885 1.05231 75.3666 0.863864 75.3078C0.723778 75.2658 0.655403 75.1683 0.655403 75.0188L0.647064 63.4643C0.647064 63.2744 0.80216 63.1214 0.992277 63.1214L6.31889 63.1164C6.59073 63.1164 6.84422 63.2576 6.99097 63.4911L12.0408 71.4815C12.1075 71.5857 12.2459 71.6143 12.3493 71.547C12.3743 71.5302 12.3976 71.5084 12.4143 71.4815L17.4924 63.3718C17.5908 63.2122 17.7643 63.1147 17.9511 63.1164L23.3694 63.1214C23.5112 63.1214 23.6346 63.2206 23.6596 63.3601L23.7496 63.8457L23.7413 73.6022C23.7413 73.7702 23.8063 73.8005 23.9364 73.6929C24.1699 73.5014 24.35 73.2443 24.4767 72.925L30.5572 63.3517C30.6439 63.2122 30.7973 63.1265 30.9607 63.1282L35.0566 63.1198C35.2084 63.1198 35.3368 63.1752 35.4418 63.2844L36.0322 63.9028L42.2544 73.9013C42.3044 73.9769 42.4045 73.9988 42.4812 73.9484C42.5079 73.9316 42.5279 73.9064 42.5412 73.8778C42.5746 73.8022 42.5712 73.6862 42.5329 73.5299L42.5195 63.3937C42.5195 63.2441 42.6413 63.1231 42.7914 63.1231C45.7982 63.1114 48.8167 63.1164 51.8469 63.1416C54.2134 63.1601 57.7056 63.4945 58.8413 65.8958C58.9296 66.0857 59.028 66.0907 59.1364 65.9143C61.0526 62.8022 65.6855 62.6375 69.0959 63.0307C71.2422 63.2811 72.9533 64.1465 74.2274 65.6303C74.4025 65.8353 74.4859 65.8017 74.4776 65.5295L74.4142 63.4878C74.4075 63.2475 74.5259 63.1265 74.7677 63.1265L79.2455 63.1214C79.4389 63.1214 79.5407 63.2206 79.549 63.4189L79.5757 63.9398L79.5774 63.9465ZM48.4682 68.8147C49.8274 68.7962 51.1032 68.7525 52.2972 68.6819C53.4696 68.6114 54.0283 68.1543 53.9783 67.309C54.0033 67.1897 53.9499 67.0368 53.8198 66.8469C53.488 66.3714 52.489 66.2437 51.962 66.2386C50.5995 66.2302 49.237 66.2184 47.8745 66.2067C47.7744 66.2033 47.6894 66.2789 47.6744 66.3798C47.4175 68.2568 47.6827 69.0668 48.4699 68.8147H48.4682ZM64.418 71.7168C65.3052 72.1806 66.1808 72.3654 67.043 72.2713C67.2815 72.2444 67.3165 72.1453 67.148 71.9739L66.576 71.384C66.4926 71.3 66.4926 71.1639 66.5777 71.0782C66.5927 71.0631 66.6077 71.0513 66.6261 71.0412L67.6117 70.4833C67.8068 70.3741 68.0453 70.3825 68.2287 70.5069L69.1876 71.1606C69.3294 71.2547 69.4478 71.2294 69.5412 71.0833C70.3067 69.8599 70.2866 68.6114 69.4778 67.3393C68.6089 66.3109 67.5349 65.9479 66.2575 66.2504C63.0839 67.0032 62.4718 68.8265 64.418 71.7184V71.7168ZM32.2999 70.3035L34.8381 70.2666C35.0132 70.2632 35.0583 70.1859 34.9699 70.033L33.6524 67.7947C33.5824 67.4233 33.4289 67.1561 33.1888 66.9931C33.047 66.899 32.932 66.9259 32.8436 67.0755L31.1592 70.0044C31.0708 70.154 31.1125 70.2531 31.2826 70.3019C31.6128 70.3926 31.9514 70.3926 32.2999 70.3019V70.3035Z" fill="white"/>
<path d="M23.7496 63.8507C23.9464 63.8928 24.1065 63.9633 24.2316 64.0608C24.3533 64.1583 24.4134 64.286 24.4134 64.4456L24.4768 72.93C24.35 73.251 24.1699 73.5064 23.9364 73.698C23.8063 73.8055 23.7413 73.7736 23.7413 73.6072L23.7496 63.8507Z" fill="black"/>
<path d="M36.0339 63.9045C38.1618 66.973 40.1914 70.1002 42.1193 73.2863C42.2077 73.4325 42.3444 73.5148 42.5329 73.5333C42.5729 73.6896 42.5746 73.8055 42.5412 73.8812C42.5045 73.9635 42.4078 74.0021 42.3244 73.9635C42.2961 73.95 42.271 73.9299 42.2544 73.903L36.0322 63.9045H36.0339Z" fill="black"/>
<path d="M79.5774 63.9465C79.7959 63.9096 79.9776 63.923 80.1227 63.9885C80.2645 64.049 80.3395 64.1583 80.3445 64.3129L80.598 71.9235C79.9193 71.4261 79.5774 70.5943 79.5724 69.4297C79.564 67.5964 79.564 65.7681 79.5774 63.9482V63.9465Z" fill="black"/>
<path d="M103.947 63.9331C104.431 63.8356 104.675 64.1885 104.675 64.9951C104.223 65.59 103.912 66.242 103.744 66.9494C101.271 66.9948 98.8076 66.9948 96.3544 66.9494C95.6156 66.9377 95.4555 67.3023 95.8724 68.0434C95.7023 68.077 95.5355 68.0787 95.3688 68.0484C95.1787 68.0115 95.0836 67.8972 95.0869 67.7056L95.1053 66.5663C95.1086 66.3344 95.2237 66.2185 95.4505 66.2185H103.384C103.634 66.2185 103.839 66.0235 103.851 65.7748L103.946 63.9348L103.947 63.9331Z" fill="black"/>
<path d="M118.021 65.8404C118.541 66.3613 118.833 66.931 118.898 67.5477C118.913 67.7039 118.843 67.7846 118.69 67.7896L114.484 67.9459C114.205 67.9711 113.912 67.9258 113.603 67.8132C112.541 66.7814 111.397 66.6789 110.175 67.5023C109.971 67.5577 109.739 67.5409 109.479 67.4519C109.301 67.3914 109.229 67.2654 109.266 67.0772C109.321 66.7747 109.502 66.568 109.811 66.4554C110.983 66.0134 112.017 66.1613 112.913 66.899C113.016 66.9847 113.145 67.0335 113.281 67.0368L118.109 67.0923C118.255 67.0923 118.375 66.9763 118.375 66.8301C118.375 66.7982 118.37 66.7663 118.358 66.736L118.021 65.8437V65.8404Z" fill="black"/>
<path d="M53.9766 67.3107C52.2939 66.9814 50.5395 66.8637 48.7134 66.9578C48.5616 66.9646 48.4682 67.0419 48.4315 67.1914C48.2981 67.7258 48.3098 68.2669 48.4682 68.8164C47.6811 69.0701 47.4159 68.2585 47.6727 66.3815C47.6861 66.279 47.7728 66.205 47.8728 66.2084C49.2353 66.2201 50.5979 66.2319 51.9604 66.2403C52.4873 66.2453 53.4863 66.3731 53.8182 66.8486C53.9482 67.0385 54.0016 67.1914 53.9766 67.3107Z" fill="black"/>
<path d="M69.4778 67.3376C68.739 67.0839 68.0102 66.9662 67.2931 66.9847C65.6855 67.0183 64.6598 67.793 64.2146 69.3087C64.0628 69.828 64.1312 70.6295 64.4197 71.7151C62.4735 68.8231 63.0855 66.9998 66.2592 66.247C67.5366 65.9445 68.6106 66.3075 69.4795 67.3359L69.4778 67.3376Z" fill="black"/>
<path d="M33.6541 67.7947L32.2999 70.3019C31.9514 70.3926 31.6128 70.3926 31.2826 70.3019C31.1125 70.2531 31.0725 70.154 31.1592 70.0044L32.8436 67.0755C32.932 66.9259 33.047 66.899 33.1888 66.9931C33.4273 67.1544 33.5824 67.4216 33.6524 67.7947H33.6541Z" fill="black"/>
<path d="M6.51402 68.9895L6.42396 75.9262C6.42396 76.0791 6.34892 76.1548 6.19716 76.1548C4.67455 76.1816 3.17196 76.1548 1.69271 76.0724C1.42088 76.0573 1.33249 75.8237 1.42922 75.3717L5.6218 75.3633C5.71186 75.3633 5.78523 75.2893 5.78523 75.1986L5.74354 68.1745C5.74021 67.998 5.80692 67.9661 5.94367 68.0787C6.24885 68.3341 6.44064 68.6383 6.51569 68.9895H6.51402Z" fill="black"/>
<path d="M18.5681 69.744L14.9809 75.8892C14.8775 76.0657 14.6907 76.1732 14.4906 76.1732H11.2669C11.1235 76.1732 10.9884 76.0976 10.9134 75.9716L10.5131 75.3397L13.7051 75.3666C13.9603 75.3666 14.1987 75.2288 14.3272 75.0053L18.2696 68.1862C18.373 68.0098 18.458 68.0182 18.5247 68.2131C18.6815 68.6853 18.6965 69.1961 18.5698 69.7423L18.5681 69.744Z" fill="black"/>
<path d="M102.585 68.976C102.797 68.934 102.968 68.9525 103.099 69.0348C103.235 69.1239 103.299 69.2583 103.289 69.4381C103.267 69.9691 103.259 70.4565 103.262 70.9018C103.265 71.1303 103.154 71.2446 102.925 71.2446H96.0942C95.9275 71.2446 95.8107 71.3219 95.744 71.4782C95.6439 71.7101 95.689 71.984 95.8808 72.3016C95.6806 72.3654 95.4888 72.3604 95.3037 72.2881C95.1486 72.2276 95.0736 72.1134 95.0769 71.9453L95.1036 70.6732C95.107 70.5153 95.187 70.4346 95.3438 70.4346L102.093 70.4531C102.361 70.4531 102.578 70.2363 102.578 69.9675L102.583 68.9743L102.585 68.976Z" fill="black"/>
<path d="M104.96 69.7675C107.461 70.7186 109.946 70.7556 112.558 70.9841C112.769 71.0009 112.928 71.1891 112.911 71.4025C112.911 71.421 112.906 71.4412 112.903 71.4597C112.861 71.6328 112.78 71.7269 112.663 71.7386C111.394 71.5958 110.145 71.4899 108.912 71.4227C108.007 71.374 107.299 71.2412 106.791 71.0244C106.064 70.7102 105.453 70.2901 104.961 69.7658L104.96 69.7675Z" fill="black"/>
<path d="M58.5144 71.3824C58.2426 71.3756 58.0224 71.4563 57.8557 71.621C57.5471 71.5454 57.2803 71.3975 57.0568 71.1824C56.8751 71.0059 56.9034 70.8766 57.1436 70.7942C57.4471 70.6867 57.7172 70.5069 57.9557 70.2548C58.1375 70.0649 58.2542 70.1002 58.3059 70.3607L58.5144 71.3857V71.3824Z" fill="black"/>
<path d="M118.488 70.1237C119.369 71.9453 119.113 73.4711 117.721 74.7045C115.454 76.7093 111.654 76.6908 108.734 76.1329C107.475 75.8943 106.477 75.3868 105.74 74.6088C108.584 75.78 113.133 76.2606 116.032 74.6088C117.664 73.6778 118.483 72.1839 118.488 70.1237Z" fill="black"/>
<path d="M89.9721 73.9551C89.5935 74.1651 89.275 74.4643 89.0132 74.8524C88.8347 75.1179 88.2444 75.4137 87.2421 75.7397C85.1742 76.4135 82.9228 76.5749 80.4896 76.2203C78.9153 75.9884 77.6579 75.4036 76.7156 74.4676C79.464 75.6876 82.4158 75.9514 85.5677 75.2591C87.3805 74.8608 88.8014 73.9097 89.4418 72.2713C89.5202 72.073 89.6086 71.8831 89.7053 71.7C89.847 71.4277 89.9221 71.4462 89.9271 71.7554L89.9721 73.9568V73.9551Z" fill="black"/>
<path d="M53.4096 72.93C51.8203 72.6276 50.241 72.5536 48.6733 72.7065C48.4649 72.7284 48.3598 72.8443 48.3598 73.0544L48.3781 75.8909C48.3815 76.0455 48.2581 76.1716 48.1063 76.1749C48.1063 76.1749 48.103 76.1749 48.1013 76.1749H39.2358C39.0807 76.1749 38.9473 76.1245 38.8323 76.0237C38.6138 75.8321 38.4387 75.5985 38.3053 75.3229L47.4025 75.3498C47.571 75.3498 47.7061 75.212 47.7061 75.044C47.7061 75.044 47.7061 75.0406 47.7061 75.039L47.6477 72.0966C47.6444 71.9403 47.7211 71.8596 47.8745 71.8546C49.0886 71.8025 50.2977 71.8126 51.5034 71.8865C52.3122 71.9386 52.9476 72.2864 53.4112 72.93H53.4096Z" fill="black"/>
<path d="M75.3948 73.0073L73.7788 74.8692L73.0167 74.4256C72.8265 74.313 72.8165 74.1853 72.99 74.0458C73.6937 73.4829 74.2207 72.8326 74.6977 72.0411C74.7411 71.9672 74.8361 71.9436 74.9112 71.989C74.9395 72.0058 74.9612 72.031 74.9745 72.0596L75.3965 73.0073H75.3948Z" fill="black"/>
<path d="M58.491 72.4713C59.1481 73.4073 59.5567 74.5466 59.7168 75.8859C59.7385 76.0774 59.6534 76.1749 59.4633 76.1749H55.4708C55.2707 76.1749 55.1023 76.101 54.9672 75.9548L54.3401 75.2725L58.8496 75.3549C58.993 75.3549 59.1098 75.2406 59.1098 75.0994C59.1098 75.0642 59.1031 75.0305 59.0897 74.9986C58.7562 74.2088 58.5561 73.3669 58.491 72.473V72.4713Z" fill="black"/>
<path d="M37.323 74.1786L30.292 74.187C30.1036 74.187 29.9651 74.271 29.8734 74.439L29.0746 75.9212C28.9912 76.0758 28.8294 76.1732 28.6527 76.1732H19.6338C19.492 76.1732 19.4003 76.1027 19.3619 75.9632C19.3136 75.7733 19.3152 75.5716 19.3669 75.3549H27.9139C28.089 75.3549 28.2191 75.2759 28.3041 75.1163L29.0396 73.7383C29.1713 73.4913 29.4281 73.3384 29.7066 73.3451C31.8813 73.372 34.1527 73.3804 36.5242 73.3686C36.9328 73.3653 37.1996 73.6358 37.323 74.1786Z" fill="black"/>
<path d="M105.423 74.3248C105.275 74.4626 105.252 74.8894 105.355 75.6053C105.407 75.98 105.245 76.1699 104.87 76.1732C100.4 76.18 95.8357 76.1766 91.1729 76.1648C90.931 76.1648 90.7793 76.0993 90.7192 75.9682C90.6525 75.8254 90.6425 75.6254 90.6876 75.3683L104.221 75.3633C104.431 75.3633 104.603 75.1902 104.603 74.9751C104.603 74.9701 104.603 74.965 104.603 74.9617L104.558 73.8274C104.549 73.5736 104.646 73.5215 104.848 73.6711C105.078 73.8425 105.27 74.0593 105.425 74.3248H105.423Z" fill="black"/>
<path d="M60.7758 74.3886C63.4908 75.5632 66.3075 75.906 69.2227 75.4187C69.3828 75.3935 69.5295 75.4271 69.6629 75.5196L70.4401 76.069C70.6319 76.2035 70.877 76.2287 71.0888 76.1379L73.6454 75.044C73.7388 75.3246 73.8639 75.4725 74.0173 75.4876C74.6193 75.5397 74.6477 75.696 74.099 75.9581C73.4236 76.2841 72.6965 76.6135 71.9193 76.9462C71.7642 77.0134 71.6091 77.0168 71.4524 76.9546C71.1188 76.8202 70.8287 76.632 70.5802 76.3866C70.4484 76.2589 70.265 76.2001 70.0849 76.227C69.0709 76.3732 67.8368 76.4219 66.3842 76.3732C64.1345 76.2976 62.265 75.6355 60.7758 74.387V74.3886Z" fill="black"/>
</g>
<defs>
<clipPath id="clip0_1_30">
<rect width="119" height="77" fill="white"/>
</clipPath>
</defs>
</svg>
