<svg width="27" height="21" viewBox="0 0 27 21" fill="none" xmlns="http://www.w3.org/2000/svg">
<path d="M9.31049 19.357C17.1527 19.357 21.4426 12.8591 21.4426 7.23399C21.4426 7.05215 21.4426 6.86772 21.4348 6.68589C22.27 6.08128 22.9908 5.33274 23.5635 4.47533C22.7834 4.81932 21.9566 5.04603 21.1101 5.14811C22.0018 4.61513 22.6696 3.77654 22.9895 2.78819C22.1517 3.28449 21.2348 3.63289 20.2789 3.81814C19.6362 3.1337 18.7858 2.68028 17.8593 2.52811C16.9329 2.37595 15.9821 2.53352 15.1542 2.97643C14.3264 3.41935 13.6677 4.12287 13.2802 4.97805C12.8927 5.83322 12.798 6.79231 13.0108 7.70675C11.3155 7.62174 9.65703 7.18134 8.14292 6.41411C6.62882 5.64687 5.29289 4.56994 4.22179 3.25316C3.67803 4.1923 3.51209 5.30319 3.75766 6.36024C4.00322 7.41729 4.64189 8.34125 5.54397 8.94451C4.86799 8.92154 4.20688 8.74002 3.61395 8.4146V8.47304C3.61511 9.45686 3.95593 10.4101 4.57879 11.1716C5.20165 11.9332 6.06835 12.4563 7.03239 12.6526C6.66647 12.7534 6.28848 12.8036 5.90893 12.8019C5.64136 12.8028 5.37432 12.778 5.11147 12.7279C5.38394 13.5748 5.91448 14.3153 6.62879 14.8456C7.34309 15.3759 8.20539 15.6695 9.09489 15.6853C7.58381 16.8721 5.71723 17.5158 3.79578 17.5127C3.45721 17.5141 3.11887 17.4946 2.78271 17.4543C4.73288 18.6975 6.99771 19.3577 9.31049 19.357Z" fill="#EDEDED"/>
</svg>
